<svg xmlns="http://www.w3.org/2000/svg" viewBox="0 0 512 512" width="512" height="512">
  <defs>
    <linearGradient id="logoGradient" x1="0%" y1="0%" x2="100%" y2="100%">
      <stop offset="0%" style="stop-color:#2E4F4F;stop-opacity:1" />
      <stop offset="100%" style="stop-color:#4A7878;stop-opacity:1" />
    </linearGradient>
  </defs>
  <!-- Stylized Lotus/Sun/Figure abstract composition -->
  <path fill="url(#logoGradient)" d="M256 32c-35.3 0-64 28.7-64 64c0 35.3 28.7 64 64 64s64-28.7 64-64C320 60.7 291.3 32 256 32z M256 160c-44.2 0-80-35.8-80-80s35.8-80 80-80s80 35.8 80 80S300.2 160 256 160z M128 288c0-53 43-96 96-96h64c53 0 96 43 96 96c0 30.4-14.6 57.6-37.3 75.3c-23.7 18.5-53.5 29-86.7 30.7V512h-64v-118c-33.2-1.7-63-12.2-86.7-30.7C142.6 345.6 128 318.4 128 288z M256 480V374c44.8-1.9 83.9-24.3 107.5-57.8C382 290 392 260 392 228c0-1.8-.1-3.6-.2-5.3C385.1 248.8 363 268 336 268h-16c-26.5 0-48-21.5-48-48s21.5-48 48-48h16c11.8 0 22.8-3.6 32-9.7V128H144v34.3c9.2 6.1 20.2 9.7 32 9.7h16c26.5 0 48 21.5 48 48s-21.5 48-48 48h-16c-27 0-49.1-19.2-55.8-45.3c-.2 1.8-.2 3.5-.2 5.3c0 32 10 62 28.5 88.2C172.1 449.7 211.2 472.1 256 474z"/>
  <circle cx="256" cy="96" r="48" fill="url(#logoGradient)" opacity="0.8"/>
  <path fill="url(#logoGradient)" d="M192 192c0-17.7 14.3-32 32-32h64c17.7 0 32 14.3 32 32s-14.3 32-32 32h-64c-17.7 0-32-14.3-32-32z" opacity="0.6"/>
</svg>
